<svg width="420" height="295" viewBox="0 0 420 295" fill="none" xmlns="http://www.w3.org/2000/svg">
<rect width="420" height="295" fill="white"/>
<ellipse rx="13.462" ry="37.5507" transform="matrix(0.969197 0.246289 -0.234833 0.972036 295.802 122.882)" fill="black"/>
<ellipse rx="14.5511" ry="37.5507" transform="matrix(0.969197 0.246289 -0.234833 0.972036 299.038 107.62)" fill="black"/>
<ellipse rx="15.0229" ry="30.0838" transform="matrix(0.387422 0.921903 -0.914628 0.404296 323.519 78.1008)" fill="black"/>
<ellipse rx="15.0229" ry="30.0838" transform="matrix(0.387422 0.921903 -0.914628 0.404296 321.355 78.0124)" fill="black"/>
<ellipse rx="14.1093" ry="30.1699" transform="matrix(-0.508291 0.861186 -0.849588 -0.527447 376.095 84.3118)" fill="black"/>
<ellipse rx="14.1093" ry="30.1699" transform="matrix(-0.508291 0.861186 -0.849588 -0.527447 372.76 81.1735)" fill="black"/>
<ellipse rx="9.81643" ry="30.4792" transform="matrix(-0.943388 0.331691 -0.317021 -0.948419 397.832 110.796)" fill="black"/>
<ellipse rx="4.84459" ry="30.5582" transform="matrix(-0.999773 -0.0212862 0.0202373 -0.999795 407.221 154.65)" fill="black"/>
<ellipse rx="4.84459" ry="30.5582" transform="matrix(-0.999773 -0.0212862 0.0202373 -0.999795 400.601 152.568)" fill="black"/>
<ellipse rx="10.3209" ry="30.5582" transform="matrix(-0.999773 -0.0212862 0.0202373 -0.999795 402.83 187.085)" fill="black"/>
<ellipse rx="10.3209" ry="30.5582" transform="matrix(-0.999773 -0.0212862 0.0202373 -0.999795 401.748 172.659)" fill="black"/>
<ellipse rx="10.3209" ry="16.3443" transform="matrix(-0.999773 -0.0212862 0.0202373 -0.999795 380.902 197.288)" fill="black"/>
<ellipse rx="10.3209" ry="16.3443" transform="matrix(-0.999773 -0.0212862 0.0202373 -0.999795 384.148 193.959)" fill="black"/>
<ellipse rx="10.3209" ry="16.3443" transform="matrix(-0.999773 -0.0212862 0.0202373 -0.999795 388.476 188.411)" fill="black"/>
<ellipse rx="10.3209" ry="16.3443" transform="matrix(-0.999773 -0.0212862 0.0202373 -0.999795 391.722 182.862)" fill="black"/>
<ellipse rx="10.3209" ry="16.3443" transform="matrix(-0.999773 -0.0212862 0.0202373 -0.999795 393.886 178.423)" fill="black"/>
<ellipse rx="10.3209" ry="16.3443" transform="matrix(-0.999773 -0.0212862 0.0202373 -0.999795 394.968 173.984)" fill="black"/>
<ellipse rx="10.3209" ry="16.3443" transform="matrix(-0.999773 -0.0212862 0.0202373 -0.999795 383.066 200.618)" fill="black"/>
<ellipse rx="10.3209" ry="16.3443" transform="matrix(-0.999773 -0.0212862 0.0202373 -0.999795 386.312 201.727)" fill="black"/>
<ellipse rx="10.3209" ry="16.3443" transform="matrix(-0.999773 -0.0212862 0.0202373 -0.999795 389.558 202.837)" fill="black"/>
<ellipse rx="10.3209" ry="16.3443" transform="matrix(-0.999773 -0.0212862 0.0202373 -0.999795 394.968 203.947)" fill="black"/>
<ellipse rx="10.3209" ry="16.3443" transform="matrix(-0.999773 -0.0212862 0.0202373 -0.999795 393.886 203.947)" fill="black"/>
<ellipse rx="10.3209" ry="16.3443" transform="matrix(-0.999773 -0.0212862 0.0202373 -0.999795 400.379 203.947)" fill="black"/>
<ellipse rx="10.3209" ry="16.3443" transform="matrix(-0.999773 -0.0212862 0.0202373 -0.999795 409.035 196.179)" fill="black"/>
<ellipse rx="9.81643" ry="30.4792" transform="matrix(-0.943388 0.331691 -0.317021 -0.948419 387.012 104.138)" fill="black"/>
<ellipse rx="9.81643" ry="30.4792" transform="matrix(-0.943388 0.331691 -0.317021 -0.948419 378.356 94.1506)" fill="black"/>
<ellipse rx="9.81643" ry="30.4792" transform="matrix(-0.943388 0.331691 -0.317021 -0.948419 385.93 106.358)" fill="black"/>
<ellipse rx="3.03635" ry="7.12863" transform="matrix(-0.943388 0.331691 -0.317021 -0.948419 386.197 127.461)" fill="black"/>
<ellipse rx="3.03635" ry="7.12863" transform="matrix(-0.943388 0.331691 -0.317021 -0.948419 390.526 128.571)" fill="black"/>
<ellipse rx="3.03635" ry="7.12863" transform="matrix(-0.943388 0.331691 -0.317021 -0.948419 389.443 128.571)" fill="black"/>
<ellipse rx="3.03635" ry="7.12863" transform="matrix(-0.943388 0.331691 -0.317021 -0.948419 388.361 128.571)" fill="black"/>
<ellipse rx="3.02881" ry="7.1456" transform="matrix(-0.995275 0.0970934 -0.0923488 -0.995727 388.361 134.119)" fill="black"/>
<ellipse rx="3.02881" ry="7.1456" transform="matrix(-0.995275 0.0970934 -0.0923488 -0.995727 388.361 134.119)" fill="black"/>
<ellipse rx="3.02881" ry="7.1456" transform="matrix(-0.995275 0.0970934 -0.0923488 -0.995727 387.994 138.199)" fill="black"/>
<ellipse rx="8.39828" ry="22.0549" transform="matrix(-0.508291 0.861186 -0.849588 -0.527447 356.47 77.5236)" fill="black"/>
<ellipse rx="8.45419" ry="21.9036" transform="matrix(0.0268451 0.99964 -0.999601 0.028236 351.258 78.8252)" fill="black"/>
<ellipse rx="14.9215" ry="30.2924" transform="matrix(0.644173 0.76488 -0.748534 0.663096 317.06 85.7194)" fill="black"/>
<ellipse rx="14.9215" ry="30.2924" transform="matrix(0.644173 0.76488 -0.748534 0.663096 308.404 100.146)" fill="black"/>
<ellipse rx="13.462" ry="42.1269" transform="matrix(0.969197 0.246289 -0.234833 0.972036 292.58 142.873)" fill="black"/>
<ellipse rx="13.4443" ry="42.1799" transform="matrix(0.996395 0.0848383 -0.0806839 0.99674 295.08 161.766)" fill="black"/>
<ellipse rx="13.4443" ry="42.1799" transform="matrix(0.996395 0.0848383 -0.0806839 0.99674 273.44 213.923)" fill="black"/>
<ellipse rx="13.5198" ry="41.9534" transform="matrix(0.875791 0.48269 -0.464124 0.88577 268.476 251.048)" fill="black"/>
<ellipse rx="1.1154" ry="14.0584" transform="matrix(0.881067 -0.472991 0.45459 0.890701 294.893 268.951)" fill="black"/>
<ellipse rx="2.3935" ry="14.0584" transform="matrix(0.881067 -0.472991 0.45459 0.890701 289.938 266.514)" fill="black"/>
<ellipse rx="2.3935" ry="14.0584" transform="matrix(0.881067 -0.472991 0.45459 0.890701 294.355 269.843)" fill="black"/>
<ellipse rx="2.3935" ry="14.0584" transform="matrix(0.881067 -0.472991 0.45459 0.890701 293.273 269.843)" fill="black"/>
<ellipse rx="2.3935" ry="14.0584" transform="matrix(0.881067 -0.472991 0.45459 0.890701 291.109 259.855)" fill="black"/>
<ellipse rx="2.3935" ry="14.0584" transform="matrix(0.881067 -0.472991 0.45459 0.890701 286.781 263.184)" fill="black"/>
<ellipse rx="8.5151" ry="14.737" transform="matrix(0.758415 0.651772 -0.6327 0.774397 301.637 235.42)" fill="black"/>
<ellipse rx="10.7227" ry="14.737" transform="matrix(0.758415 0.651772 -0.6327 0.774397 292.389 240.64)" fill="black"/>
<ellipse rx="10.7227" ry="14.737" transform="matrix(0.758415 0.651772 -0.6327 0.774397 293.573 241.298)" fill="black"/>
<ellipse rx="7.79545" ry="14.8473" transform="matrix(0.93856 0.345115 -0.329997 0.943982 291.579 249.591)" fill="black"/>
<ellipse rx="2.72476" ry="11.3499" transform="matrix(0.996395 0.0848383 -0.0806839 0.99674 262.435 177.054)" fill="black"/>
<ellipse rx="5.02603" ry="12.9061" transform="matrix(0.950547 0.310582 -0.29665 0.954986 262 199.053)" fill="black"/>
<ellipse rx="9.89248" ry="15.4846" transform="matrix(0.996395 0.0848383 -0.0806839 0.99674 258.423 214.757)" fill="black"/>
<ellipse rx="9.89248" ry="15.4846" transform="matrix(0.996395 0.0848383 -0.0806839 0.99674 259.09 223.634)" fill="black"/>
<ellipse rx="9.89248" ry="15.4846" transform="matrix(0.996395 0.0848383 -0.0806839 0.99674 261.254 232.512)" fill="black"/>
<ellipse rx="9.89248" ry="15.4846" transform="matrix(0.996395 0.0848383 -0.0806839 0.99674 261.254 248.048)" fill="black"/>
<ellipse rx="9.89248" ry="15.4846" transform="matrix(0.996395 0.0848383 -0.0806839 0.99674 258.008 259.146)" fill="black"/>
<ellipse rx="11.9827" ry="16.4518" transform="matrix(0.996395 0.0848383 -0.0806839 0.99674 248.267 273.604)" fill="black"/>
<ellipse rx="11.9827" ry="16.4518" transform="matrix(0.996395 0.0848383 -0.0806839 0.99674 251.513 269.165)" fill="black"/>
<ellipse rx="2.72941" ry="11.3314" transform="matrix(0.961074 0.276291 -0.26364 0.964621 263.333 167.998)" fill="black"/>
<ellipse rx="2.73862" ry="11.2947" transform="matrix(0.887723 0.460377 -0.442212 0.896911 271.64 156.608)" fill="black"/>
<ellipse rx="2.73862" ry="11.2947" transform="matrix(0.887723 0.460377 -0.442212 0.896911 274.886 155.498)" fill="black"/>
<ellipse rx="2.73862" ry="11.2947" transform="matrix(0.887723 0.460377 -0.442212 0.896911 271.64 162.156)" fill="black"/>
<ellipse rx="2.73862" ry="11.2947" transform="matrix(0.887723 0.460377 -0.442212 0.896911 268.394 167.705)" fill="black"/>
<ellipse rx="2.72941" ry="11.3314" transform="matrix(0.961074 0.276291 -0.26364 0.964621 265.497 169.108)" fill="black"/>
<ellipse rx="2.72941" ry="11.3314" transform="matrix(0.961074 0.276291 -0.26364 0.964621 275.235 167.998)" fill="black"/>
<ellipse rx="2.73843" ry="11.2954" transform="matrix(0.889316 0.457293 -0.439188 0.898395 267.283 161.056)" fill="black"/>
<ellipse rx="13.4432" ry="42.1832" transform="matrix(0.998054 -0.0623493 0.0592867 0.998241 300.691 181.505)" fill="black"/>
<ellipse rx="25.7551" ry="30.7563" transform="matrix(0.996395 0.0848383 -0.0806839 0.99674 304.261 206.91)" fill="black"/>
<ellipse cx="347.5" cy="148.5" rx="8.5" ry="0.5" fill="#101010"/>
<ellipse cx="347.5" cy="148" rx="8.5" ry="1" fill="#101010"/>
<ellipse cx="346.5" cy="149" rx="8.5" ry="1" fill="#101010"/>
<ellipse cx="346.5" cy="149" rx="8.5" ry="1" fill="#101010"/>
<ellipse cx="348.5" cy="149" rx="8.5" ry="1" fill="#101010"/>
<ellipse cx="343" cy="149.5" rx="5" ry="0.5" fill="#101010"/>
<ellipse cx="353" cy="149.5" rx="5" ry="0.5" fill="#101010"/>
<ellipse cx="355.183" cy="147.892" rx="2.40433" ry="0.306966" transform="rotate(33.0558 355.183 147.892)" fill="#101010"/>
<ellipse cx="355.889" cy="149.02" rx="2.40433" ry="0.844864" transform="rotate(33.0558 355.889 149.02)" fill="#101010"/>
<ellipse cx="338" cy="149.5" rx="1" ry="0.5" fill="#101010"/>
<ellipse cx="339.903" cy="147.816" rx="2.13303" ry="0.5" transform="rotate(-37.1529 339.903 147.816)" fill="#101010"/>
<ellipse cx="339.002" cy="148.687" rx="2.13303" ry="0.5" transform="rotate(-37.1529 339.002 148.687)" fill="#101010"/>
<ellipse cx="347.5" cy="147" rx="6.5" ry="1" fill="#101010"/>
<ellipse cx="352.5" cy="147.5" rx="2.5" ry="0.5" fill="#101010"/>
<ellipse cx="343.5" cy="147.5" rx="3.5" ry="1.5" fill="#101010"/>
<ellipse cx="346.5" cy="148" rx="6.5" ry="1" fill="#101010"/>
<ellipse cx="348" cy="151" rx="9" ry="1" fill="#020202"/>
<ellipse cx="348" cy="151" rx="9" ry="1" fill="#020202"/>
<ellipse cx="348" cy="151" rx="9" ry="2" fill="#020202"/>
<ellipse cx="348" cy="152" rx="9" ry="2" fill="#020202"/>
<ellipse cx="351" cy="151" rx="9" ry="2" fill="#020202"/>
<ellipse cx="352" cy="150.5" rx="9" ry="1.5" fill="#020202"/>
<ellipse cx="354" cy="150.5" rx="9" ry="1.5" fill="#020202"/>
<ellipse cx="354" cy="150.5" rx="9" ry="1.5" fill="#020202"/>
<ellipse cx="345" cy="150.5" rx="9" ry="1.5" fill="#020202"/>
<ellipse cx="344" cy="150.5" rx="10" ry="1.5" fill="#020202"/>
<ellipse cx="341.5" cy="150.5" rx="7.5" ry="1.5" fill="#020202"/>
<ellipse cx="340.5" cy="150.5" rx="7.5" ry="1.5" fill="#020202"/>
<ellipse cx="346" cy="151" rx="9" ry="2" fill="#020202"/>
</svg>
