<svg width="645" height="231" viewBox="0 0 645 231" fill="none" xmlns="http://www.w3.org/2000/svg">
<path d="M3 22C0.923378 31.3448 3.08855 41.6378 4.83333 50.8333C7.04957 62.5135 10.1334 73.2935 15 84" stroke="black" stroke-linecap="round"/>
<path d="M1 28C4.62826 48.8625 11.1839 69.6438 17 90" stroke="black" stroke-linecap="round"/>
<path d="M2 25C0.190132 27.4132 5.81564 40.9927 5.88889 41.2222C12.3775 61.5501 19.2524 81.7572 26 102" stroke="black" stroke-linecap="round"/>
<path d="M10 25C14.1575 47.2996 20.0941 69.1134 26 91" stroke="black" stroke-linecap="round"/>
<path d="M8 19C10.1828 36.7746 16.3697 55.0162 22.1111 71.8889C26.0247 83.3899 29.8384 96.8182 38 106" stroke="black" stroke-linecap="round"/>
<path d="M25 29C27.2482 51.0857 32.8046 72.7651 41.2222 93.3333C43.1941 98.1516 45.8977 107.449 51 110" stroke="black" stroke-linecap="round"/>
<path d="M12 14C21.7836 44.7289 32.3873 75.2393 42 106" stroke="black" stroke-linecap="round"/>
<path d="M17 17C22.6571 52.5416 30.5065 87.4478 42.7778 121.333C43.2147 122.54 43.7586 123.711 44.1111 124.944C44.7486 127.176 42.0689 120.772 41.2222 118.611C35.3318 103.58 30.3874 88.2114 25 73" stroke="black" stroke-linecap="round"/>
<path d="M18 51C18.7963 60.6884 22.1002 69.6488 25.3333 78.7778C30.9159 94.5403 37.2535 109.872 44.1111 125.111C46.6953 130.854 48.5257 137.163 51.3333 142.778C55.0028 150.117 45.1324 127.584 42 120" stroke="black" stroke-linecap="round"/>
<path d="M20 66C26.2005 93.2823 33.2636 119.418 44.8333 144.944C46.4736 148.563 51.5998 159.296 49.5556 155.889C43.507 145.808 39.6699 133.763 35.3333 122.944C28.517 105.94 22.6644 88.5583 15.8889 71.5556C14.9177 69.1185 14.6878 69.4264 15.1111 72C16.6672 81.461 19.3025 90.8389 21.4444 100.167C28.1147 129.214 32.925 159.422 43.3333 187.444C43.521 187.95 49.8889 200.917 49.8889 199.333C49.8889 192.638 47.1235 187.135 45 181" stroke="black" stroke-linecap="round"/>
<path d="M25 109C30.1062 132.506 34.9291 156.571 44.6111 178.722C46.7548 183.627 49.2168 188.217 53 192" stroke="black" stroke-linecap="round"/>
<path d="M30 106C36.5758 135.043 44.555 164.698 55.5556 192.389C57.1947 196.515 59.2432 200.441 60.8889 204.556C61.8903 207.059 58.9467 199.525 58 197" stroke="black" stroke-linecap="round"/>
<path d="M42 124C44.4366 148.854 50.5343 174.82 58.5556 198.444C59.6485 201.663 61.2748 209.854 63.5556 207.333C64.765 205.997 64 201.571 64 200" stroke="black" stroke-linecap="round"/>
<path d="M52 150C51.3399 147.382 48.7803 131.024 45.1111 130.444C43.354 130.167 54.257 174.803 54.7778 176.5C59.3324 191.343 64.4426 206.204 71.0556 220.278C72.7164 223.812 73.5446 226.638 75 223" stroke="black" stroke-linecap="round"/>
<path d="M53 127C52.4622 126.462 52.9108 126.882 53.5556 128.556C57.5685 138.974 61.1028 149.551 64.7222 160.111C70.5014 176.972 75.7055 194.593 83.5556 210.667C90.1629 224.196 75.7315 181.587 72 167" stroke="black" stroke-linecap="round"/>
<path d="M68 144C67.8711 141.379 66.0807 133.692 66.7778 136.222C70.4271 149.468 75.4556 162.45 79.8889 175.444C83.2295 185.236 86.3683 195.21 90.3333 204.778C90.7079 205.682 91.3139 208.195 91.7778 207.333C92.5616 205.878 89.1833 197.333 89.1111 197.111C84.7323 183.638 79.96 170.32 75.7778 156.778C75.6167 156.256 71.8486 143.212 70.5 140.611C69.8157 139.291 69.3376 143.462 69.4444 144.944C71.3847 171.866 85.7959 196.15 92 222" stroke="black" stroke-linecap="round"/>
<path d="M104 205C104 185.278 110.22 164.501 114.778 145.667C121.659 117.231 129.739 89.1952 137.889 61.1111C138.928 57.5297 140.138 53.9861 140.889 50.3333C144.498 32.7826 139.482 55.6779 139 47" stroke="black" stroke-linecap="round"/>
<path d="M118 175C116.117 162.57 114.841 152.518 117.944 139.778C124.85 111.433 139.182 87.1795 153 62" stroke="black" stroke-linecap="round"/>
<path d="M96 211C107.195 166.715 120.691 123.673 145 85" stroke="black" stroke-linecap="round"/>
<path d="M106 179C104.244 186.083 101.118 193.369 100 200.556C98.8136 208.183 105.175 186.009 107.556 178.667C116.339 151.579 125.12 124.265 136.444 98.1111C140.899 87.8237 147.027 75.1542 153.444 65.5556C170.956 39.3632 150.514 70.7088 162 57" stroke="black" stroke-linecap="round"/>
<path d="M122 177C129.312 141.954 143.499 110.438 162 80" stroke="black" stroke-linecap="round"/>
<path d="M103 213C108.431 203.948 111.025 191.472 115.167 181.833C127.769 152.5 142.386 124.333 157 96" stroke="black" stroke-linecap="round"/>
<path d="M110 207C111.433 209.507 114.637 203.301 114.722 203.167C123.856 188.774 129.39 172.359 136.333 156.889C142.413 143.344 149.096 130.022 157.556 117.778C161.405 112.206 164.359 108.82 170 106" stroke="black" stroke-linecap="round"/>
<path d="M117 213C136.659 164.977 155.865 116.953 178 70" stroke="black" stroke-linecap="round"/>
<path d="M140 158C154.936 119.859 170.576 83.3374 193 49" stroke="black" stroke-linecap="round"/>
<path d="M150 96C162.537 72.1918 171.554 48.0768 178.667 22.1667C180.9 14.0302 179.143 16.5728 175.444 21.8889C167.906 32.7254 160.878 43.8836 154.5 55.4444C151.271 61.2971 148.528 67.3122 145.444 73.2222C143.402 77.1373 148.885 65.0878 150.556 61C157.623 43.7056 165.1 26.3796 171.889 9C172.871 6.48504 168.544 13.2476 167.056 15.5C158.871 27.8823 150.683 40.3431 143.389 53.2778C140.887 57.7144 140.229 59.0813 138.389 63.2222C137.999 64.1004 137.524 66.7256 137.167 65.8333C136.227 63.4849 139.431 57.1603 140.167 55.2222C144.446 43.952 148.605 32.2341 154 21.4444C158.894 11.6572 146.184 41.889 142 52" stroke="black" stroke-linecap="round"/>
<path d="M141 60C146.583 39.3841 161.08 21.7193 167 1" stroke="black" stroke-linecap="round"/>
<path d="M200 94C200.098 104.169 200.22 114.339 200.667 124.5C200.863 128.966 201.027 133.438 201.444 137.889C212.423 254.886 198.142 110.18 204 147" stroke="black" stroke-linecap="round"/>
<path d="M198 88C198.253 106.201 198.52 124.464 200.778 142.556C202.069 152.902 203.508 161.512 209 170" stroke="black" stroke-linecap="round"/>
<path d="M204 99C204.061 118.106 202.581 138.317 206.111 157.222C207.433 164.3 209.119 166.339 214 170" stroke="black" stroke-linecap="round"/>
<path d="M211 106C207.909 127.291 206.427 149.913 207.944 171.389C208.404 177.888 209.296 183.287 215 184" stroke="black" stroke-linecap="round"/>
<path d="M216 104C216 122.506 215.583 141.057 216.111 159.556C216.315 166.703 216.186 168.009 221 165" stroke="black" stroke-linecap="round"/>
<path d="M211 98C209.571 125.389 216.512 152.587 222 179" stroke="black" stroke-linecap="round"/>
<path d="M214 117C214.056 136.504 210.964 159.774 218.167 178.5C220.196 183.777 222.17 187.585 227 190" stroke="black" stroke-linecap="round"/>
<path d="M214 153C215.786 170.417 226.094 176.728 242 179" stroke="black" stroke-linecap="round"/>
<path d="M220 161C221.019 169.556 222.998 198 238 195" stroke="black" stroke-linecap="round"/>
<path d="M226 171C228.543 175.96 232.419 180.258 236.278 184.222C238.316 186.316 240.358 188.432 242.667 190.222C267.927 209.815 234.559 183.683 251 193" stroke="black" stroke-linecap="round"/>
<path d="M230 184C239.279 189.965 250.129 187.987 260 187" stroke="black" stroke-linecap="round"/>
<path d="M246 193C257.525 193.158 263.696 186.75 266 176" stroke="black" stroke-linecap="round"/>
<path d="M261 161C260.184 167.68 259.383 174.326 259.111 181.056C258.942 185.247 259.745 190.467 258.444 194.556C257.649 197.056 254.397 185.64 254.222 184.222C253.824 180.999 252.936 176.852 256.111 175C261.244 172.006 259.658 178.287 259.222 181.444C258.904 183.754 260.072 192.112 262.444 185.944C266.459 175.507 265.902 160.401 263.556 149.667C261.166 138.734 258.608 144.359 258.056 152C257.325 162.102 257.501 171.999 253 181" stroke="black" stroke-linecap="round"/>
<path d="M259 160C257.174 160.406 257.848 161.696 257 160" stroke="black" stroke-linecap="round"/>
<path d="M257 159C257 169.186 259.527 185.203 266.778 192.889C272.696 199.162 277.644 180.051 279 177" stroke="black" stroke-linecap="round"/>
<path d="M263 161C257.418 168.908 274.182 193.636 281 195" stroke="black" stroke-linecap="round"/>
<path d="M268 175C274.191 184.68 281.517 194 294 194" stroke="black" stroke-linecap="round"/>
<path d="M270 176C271.15 177.434 292.626 206.374 295 204" stroke="black" stroke-linecap="round"/>
<path d="M277 182C284.45 186.851 297.731 193.359 304 185" stroke="black" stroke-linecap="round"/>
<path d="M283 182C287.88 191.063 302.804 197.136 312.278 192.889C327.643 186.001 322.299 174.182 318 162" stroke="black" stroke-linecap="round"/>
<path d="M311 189C316.704 177.116 317.426 161.07 317.889 148.111C318.304 136.49 319.181 123.1 315.444 111.889C312.467 102.957 315.202 130.802 316.611 140.111C318.528 152.776 321.191 165.337 323 178" stroke="black" stroke-linecap="round"/>
<path d="M315 128C313.381 125.241 313.14 125.108 312 121.778C311.858 121.362 309.26 111.207 309.167 111.222C307.027 111.579 313.436 155.849 313.778 159.944C314.206 165.088 314.096 170.376 315.222 175.444C315.366 176.09 315.607 176.711 315.833 177.333C315.903 177.526 315.834 176.919 315.778 176.722C311.976 163.415 311.228 149.002 310.111 135.278C309.581 128.771 309.351 125.12 309.111 118.833C309.054 117.334 309.032 115.833 309 114.333C308.989 113.815 309 115.37 309 115.889C309 131.272 308.921 146.657 310.222 162C310.655 167.108 311.403 172.177 311.889 177.278C312.272 181.298 311.801 177.488 311.778 177.222C310.85 166.548 309.967 156.489 308 146" stroke="black" stroke-linecap="round"/>
<path d="M304 99C301.059 115.909 303 134.396 303 151.5C303 155.519 303 159.537 303 163.556C303 166.333 303 158 303 155.222C303 137.991 302.677 120.727 303.056 103.5C303.085 102.147 303.102 100.792 303.222 99.4444C303.259 99.032 303.749 100.142 303.778 100.556C304.355 108.753 304.463 116.969 305.111 125.167C305.148 125.632 307.837 151.879 309.944 145.556C313.174 135.867 311 123.089 311 113.056C311 99.4572 311.004 123.618 311.056 126.222C311.073 127.096 312.858 144.714 314.389 139.611C316.599 132.244 315 122.379 315 114.889C315 108.333 315 101.778 315 95.2222C315 94.7037 315 94.1852 315 93.6667C315 92.5185 314.983 95.9631 315 97.1111C315.115 105.092 313.894 117.952 318.222 125.111C320.144 128.29 319.786 113.455 319.778 113.333C319.335 106.422 318.19 99.7004 316.444 93C315.81 90.5659 314.568 83.5584 312.444 81.3333C310.768 79.5767 312.017 86.1845 312.111 88.6111C312.416 96.4741 313.016 104.33 314.222 112.111C314.772 115.657 313.624 124.16 316.833 122.556C317.503 122.221 317.003 115.604 317 115.222C316.966 110.867 316.814 106.069 316 102" stroke="black" stroke-linecap="round"/>
<path d="M380 99C377.861 94.8148 375.353 93.7486 370.611 96.6111C356.574 105.084 348.774 126.781 355.222 142.111C364.865 165.037 396.469 163.83 416.056 158.167C435.602 152.516 444.66 140.045 440.056 119.889C435.713 100.882 421.89 86.0398 401.722 84.3333C384.47 82.8735 364.579 93.0216 361.111 111.278C356.604 135.008 392.519 159.031 412.722 145.5C433.625 131.501 413.522 96.5778 393.556 93.3333C377.077 90.6556 368.965 110.775 367.889 123.667C366.4 141.498 374.964 158.705 393.111 163.333C405.777 166.564 422.022 163.786 428.444 151.111C433.945 140.254 433.83 121.923 422.111 114.778C408.468 106.459 387.815 115.994 379.778 128C369.596 143.21 379.824 160.066 395.111 166C405.888 170.184 418.931 169.249 428.5 162.667C442.734 152.875 445.426 133.75 441.389 118.056C436.561 99.2895 422.236 88.3065 402.667 93.0556C383.337 97.7465 369.954 114.975 370.278 134.944C370.933 175.392 436.367 170.414 434.889 132.167C434.175 113.687 417.881 98.6594 399.944 96.8889C380.466 94.9661 370.939 110.555 372.889 128.333C374.266 140.888 380.66 152.128 393 156.667C404.847 161.024 418.634 156.878 422 143.778C426.188 127.48 419.992 105.096 406.222 94.7778C392.243 84.3033 373.244 92.1903 368.556 108.444C363.767 125.044 375.372 141.985 392.111 144.667C407.938 147.202 421.299 134.247 424.222 119.444C427.92 100.72 412.093 90.1512 395.444 88.6667C382.014 87.469 373.836 92.281 363 98" stroke="black" stroke-linecap="round"/>
<path d="M466 94C467.23 118.778 469.375 143.567 472.111 168.222C472.868 175.043 471.917 182.604 475.333 188.556C478.12 193.409 476 177.374 475.944 171.778C475.749 152.157 475.555 132.502 475 112.889C474.643 100.267 473.389 138.098 473.111 150.722C473.071 152.567 472.882 161.19 473.111 164.278C473.346 167.448 473.888 163.951 474 163.222C476.368 147.832 475.271 131.272 474.778 115.778C474.215 98.0984 471.685 116.466 471.167 122.167C470.276 131.959 471.17 140.483 473 150" stroke="black" stroke-linecap="round"/>
<path d="M473 94C470.898 96.7593 471.686 95.3033 471.444 101.667C470.988 113.669 471.242 126.057 473.5 137.889C476.344 152.791 475.796 127.767 475.778 127C475.693 123.375 475.352 110.914 475.222 107C475.179 105.703 475.537 104.316 475.056 103.111C473.371 98.8986 475.012 112.185 475.056 116.722C475.186 130.246 475.611 143.571 477 157" stroke="black" stroke-linecap="round"/>
<path d="M475 96C473.291 91.5555 476.642 83.9056 480.556 81.4444C494.482 72.6856 499.722 109.662 499.444 116.278C499.069 125.23 494.878 131.756 486 133.611C484.364 133.953 479.328 134 481 134" stroke="black" stroke-linecap="round"/>
<path d="M483 127C499.902 141.81 518.384 156.193 533.167 173.278C537.421 178.194 536.806 178.927 538 184" stroke="black" stroke-linecap="round"/>
<path d="M501 146C516.269 162.965 533.274 178.468 549 195" stroke="black" stroke-linecap="round"/>
<path d="M495 132C494.115 131.54 491.678 129.899 492.222 132.5C493.925 140.634 501.601 148.725 507 154.556C508.361 156.025 522.375 170.625 524 169" stroke="black" stroke-linecap="round"/>
<path d="M497 128C497.608 131.444 503.909 138.276 505.333 139.944C512.037 147.794 519.427 152.437 527 159" stroke="black" stroke-linecap="round"/>
<path d="M483 84C496.47 86.2449 505.202 102.391 509 113.833C511.37 120.974 512.433 128.002 511.889 135.444C511.44 141.583 510.15 139.85 507 143" stroke="black" stroke-linecap="round"/>
<path d="M484 86C498.515 90.8383 521.46 133.562 500 140" stroke="black" stroke-linecap="round"/>
<path d="M487 106C490.579 95.2644 502.917 92.1888 506.778 105C510.458 117.215 509.337 130.985 506 143" stroke="black" stroke-linecap="round"/>
<path d="M478 79C492.644 80.2203 507.828 96.5837 512.278 109.611C514.6 116.408 514.159 121.768 512.778 128.444C511.559 134.333 510.735 132.718 508 136" stroke="black" stroke-linecap="round"/>
<path d="M554 84C578.41 81.9516 606.988 88.7388 626.056 104.722C636.529 113.502 644.586 131.9 634.444 144C623.436 157.135 603.976 157.971 588.333 157.111C578.195 156.553 569.375 155.384 561 150" stroke="black" stroke-linecap="round"/>
<path d="M548 88C572.948 89.9111 598.709 90.5689 621.667 101.944C642.324 112.18 653.135 131.91 632.611 148.889C619.823 159.468 602.753 164.249 586.778 167.222C583.661 167.802 575.002 168.88 570.889 168.333C563.589 167.363 572.071 167.879 568 166" stroke="black" stroke-linecap="round"/>
<path d="M557 92C571.186 96.5953 572.587 95.8948 586.333 107.333C602.096 120.45 630.221 145.033 627.056 169C625.658 179.579 615.269 182.907 607.222 185.5C596.977 188.802 591.699 186.396 582 186" stroke="black" stroke-linecap="round"/>
<path d="M574 84C580.469 87.3961 582.082 88.111 589.778 93.3333C606.683 104.805 627.604 117.881 636.833 137.056C640.792 145.28 639.948 151.005 634.944 158C627.36 168.604 615.751 168.88 605 174" stroke="black" stroke-linecap="round"/>
<path d="M590 104C592.136 132.679 594.77 161.33 597 190" stroke="black" stroke-linecap="round"/>
<path d="M596 92C594.327 104.048 594.395 116.765 594.333 128.833C594.295 136.334 594.26 143.839 594.556 151.333C597.625 229.272 593.859 126.203 598 179" stroke="black" stroke-linecap="round"/>
<path d="M595 122C596.427 157.844 594.703 194.685 600 230" stroke="black" stroke-linecap="round"/>
<path d="M603 122C603.164 139.952 603.119 160.28 604.111 178.333C607.145 233.545 604.102 167.396 608 213" stroke="black" stroke-linecap="round"/>
<path d="M603 115C603.101 142.763 603.881 170.299 605 198" stroke="black" stroke-linecap="round"/>
<path d="M582 111C582.782 125.543 583.627 140.084 584.667 154.611C585.777 170.113 588.162 184.795 590 200" stroke="black" stroke-linecap="round"/>
<path d="M577 106C577 141.558 573.242 178.77 584 213" stroke="black" stroke-linecap="round"/>
</svg>
