<svg width="653" height="239" viewBox="0 0 653 239" fill="none" xmlns="http://www.w3.org/2000/svg">
<g filter="url(#filter0_d_1_366)">
<path d="M7 22C4.92338 31.3448 7.08855 41.6378 8.83333 50.8333C11.0496 62.5135 14.1334 73.2935 19 84" stroke="black" stroke-linecap="round"/>
<path d="M5 28C8.62826 48.8625 15.1839 69.6438 21 90" stroke="black" stroke-linecap="round"/>
<path d="M6 25C4.19013 27.4132 9.81564 40.9927 9.88889 41.2222C16.3775 61.5501 23.2524 81.7572 30 102" stroke="black" stroke-linecap="round"/>
<path d="M14 25C18.1575 47.2996 24.0941 69.1134 30 91" stroke="black" stroke-linecap="round"/>
<path d="M12 19C14.1828 36.7746 20.3697 55.0162 26.1111 71.8889C30.0247 83.3899 33.8384 96.8182 42 106" stroke="black" stroke-linecap="round"/>
<path d="M29 29C31.2482 51.0857 36.8046 72.7651 45.2222 93.3333C47.1941 98.1516 49.8977 107.449 55 110" stroke="black" stroke-linecap="round"/>
<path d="M16 14C25.7836 44.7289 36.3873 75.2393 46 106" stroke="black" stroke-linecap="round"/>
<path d="M21 17C26.6571 52.5416 34.5065 87.4478 46.7778 121.333C47.2147 122.54 47.7586 123.711 48.1111 124.944C48.7486 127.176 46.0689 120.772 45.2222 118.611C39.3318 103.58 34.3874 88.2114 29 73" stroke="black" stroke-linecap="round"/>
<path d="M22 51C22.7963 60.6884 26.1002 69.6488 29.3333 78.7778C34.9159 94.5403 41.2535 109.872 48.1111 125.111C50.6953 130.854 52.5257 137.163 55.3333 142.778C59.0028 150.117 49.1324 127.584 46 120" stroke="black" stroke-linecap="round"/>
<path d="M24 66C30.2005 93.2823 37.2636 119.418 48.8333 144.944C50.4736 148.563 55.5998 159.296 53.5556 155.889C47.507 145.808 43.6699 133.763 39.3333 122.944C32.517 105.94 26.6644 88.5583 19.8889 71.5556C18.9177 69.1185 18.6878 69.4264 19.1111 72C20.6672 81.461 23.3025 90.8389 25.4444 100.167C32.1147 129.214 36.925 159.422 47.3333 187.444C47.521 187.95 53.8889 200.917 53.8889 199.333C53.8889 192.638 51.1235 187.135 49 181" stroke="black" stroke-linecap="round"/>
<path d="M29 109C34.1062 132.506 38.9291 156.571 48.6111 178.722C50.7548 183.627 53.2168 188.217 57 192" stroke="black" stroke-linecap="round"/>
<path d="M34 106C40.5758 135.043 48.555 164.698 59.5556 192.389C61.1947 196.515 63.2432 200.441 64.8889 204.556C65.8903 207.059 62.9467 199.525 62 197" stroke="black" stroke-linecap="round"/>
<path d="M46 124C48.4366 148.854 54.5343 174.82 62.5556 198.444C63.6485 201.663 65.2748 209.854 67.5556 207.333C68.765 205.997 68 201.571 68 200" stroke="black" stroke-linecap="round"/>
<path d="M56 150C55.3399 147.382 52.7803 131.024 49.1111 130.444C47.354 130.167 58.257 174.803 58.7778 176.5C63.3324 191.343 68.4426 206.204 75.0556 220.278C76.7164 223.812 77.5446 226.638 79 223" stroke="black" stroke-linecap="round"/>
<path d="M57 127C56.4622 126.462 56.9108 126.882 57.5556 128.556C61.5685 138.974 65.1028 149.551 68.7222 160.111C74.5014 176.972 79.7055 194.593 87.5556 210.667C94.1629 224.196 79.7315 181.587 76 167" stroke="black" stroke-linecap="round"/>
<path d="M72 144C71.8711 141.379 70.0807 133.692 70.7778 136.222C74.4271 149.468 79.4556 162.45 83.8889 175.444C87.2295 185.236 90.3683 195.21 94.3333 204.778C94.7079 205.682 95.3139 208.195 95.7778 207.333C96.5616 205.878 93.1833 197.333 93.1111 197.111C88.7323 183.638 83.96 170.32 79.7778 156.778C79.6167 156.256 75.8486 143.212 74.5 140.611C73.8157 139.291 73.3376 143.462 73.4444 144.944C75.3847 171.866 89.7959 196.15 96 222" stroke="black" stroke-linecap="round"/>
<path d="M108 205C108 185.278 114.22 164.501 118.778 145.667C125.659 117.231 133.739 89.1952 141.889 61.1111C142.928 57.5297 144.138 53.9861 144.889 50.3333C148.498 32.7826 143.482 55.6779 143 47" stroke="black" stroke-linecap="round"/>
<path d="M122 175C120.117 162.57 118.841 152.518 121.944 139.778C128.85 111.433 143.182 87.1795 157 62" stroke="black" stroke-linecap="round"/>
<path d="M100 211C111.195 166.715 124.691 123.673 149 85" stroke="black" stroke-linecap="round"/>
<path d="M110 179C108.244 186.083 105.118 193.369 104 200.556C102.814 208.183 109.175 186.009 111.556 178.667C120.339 151.579 129.12 124.265 140.444 98.1111C144.899 87.8237 151.027 75.1542 157.444 65.5556C174.956 39.3632 154.514 70.7088 166 57" stroke="black" stroke-linecap="round"/>
<path d="M126 177C133.312 141.954 147.499 110.438 166 80" stroke="black" stroke-linecap="round"/>
<path d="M107 213C112.431 203.948 115.025 191.472 119.167 181.833C131.769 152.5 146.386 124.333 161 96" stroke="black" stroke-linecap="round"/>
<path d="M114 207C115.433 209.507 118.637 203.301 118.722 203.167C127.856 188.774 133.39 172.359 140.333 156.889C146.413 143.344 153.096 130.022 161.556 117.778C165.405 112.206 168.359 108.82 174 106" stroke="black" stroke-linecap="round"/>
<path d="M121 213C140.659 164.977 159.865 116.953 182 70" stroke="black" stroke-linecap="round"/>
<path d="M144 158C158.936 119.859 174.576 83.3374 197 49" stroke="black" stroke-linecap="round"/>
<path d="M154 96C166.537 72.1918 175.554 48.0768 182.667 22.1667C184.9 14.0302 183.143 16.5728 179.444 21.8889C171.906 32.7254 164.878 43.8836 158.5 55.4444C155.271 61.2971 152.528 67.3122 149.444 73.2222C147.402 77.1373 152.885 65.0878 154.556 61C161.623 43.7056 169.1 26.3796 175.889 9C176.871 6.48504 172.544 13.2476 171.056 15.5C162.871 27.8823 154.683 40.3431 147.389 53.2778C144.887 57.7144 144.229 59.0813 142.389 63.2222C141.999 64.1004 141.524 66.7256 141.167 65.8333C140.227 63.4849 143.431 57.1603 144.167 55.2222C148.446 43.952 152.605 32.2341 158 21.4444C162.894 11.6572 150.184 41.889 146 52" stroke="black" stroke-linecap="round"/>
<path d="M145 60C150.583 39.3841 165.08 21.7193 171 1" stroke="black" stroke-linecap="round"/>
<path d="M204 94C204.098 104.169 204.22 114.339 204.667 124.5C204.863 128.966 205.027 133.438 205.444 137.889C216.423 254.886 202.142 110.18 208 147" stroke="black" stroke-linecap="round"/>
<path d="M202 88C202.253 106.201 202.52 124.464 204.778 142.556C206.069 152.902 207.508 161.512 213 170" stroke="black" stroke-linecap="round"/>
<path d="M208 99C208.061 118.106 206.581 138.317 210.111 157.222C211.433 164.3 213.119 166.339 218 170" stroke="black" stroke-linecap="round"/>
<path d="M215 106C211.909 127.291 210.427 149.913 211.944 171.389C212.404 177.888 213.296 183.287 219 184" stroke="black" stroke-linecap="round"/>
<path d="M220 104C220 122.506 219.583 141.057 220.111 159.556C220.315 166.703 220.186 168.009 225 165" stroke="black" stroke-linecap="round"/>
<path d="M215 98C213.571 125.389 220.512 152.587 226 179" stroke="black" stroke-linecap="round"/>
<path d="M218 117C218.056 136.504 214.964 159.774 222.167 178.5C224.196 183.777 226.17 187.585 231 190" stroke="black" stroke-linecap="round"/>
<path d="M218 153C219.786 170.417 230.094 176.728 246 179" stroke="black" stroke-linecap="round"/>
<path d="M224 161C225.019 169.556 226.998 198 242 195" stroke="black" stroke-linecap="round"/>
<path d="M230 171C232.543 175.96 236.419 180.258 240.278 184.222C242.316 186.316 244.358 188.432 246.667 190.222C271.927 209.815 238.559 183.683 255 193" stroke="black" stroke-linecap="round"/>
<path d="M234 184C243.279 189.965 254.129 187.987 264 187" stroke="black" stroke-linecap="round"/>
<path d="M250 193C261.525 193.158 267.696 186.75 270 176" stroke="black" stroke-linecap="round"/>
<path d="M265 161C264.184 167.68 263.383 174.326 263.111 181.056C262.942 185.247 263.745 190.467 262.444 194.556C261.649 197.056 258.397 185.64 258.222 184.222C257.824 180.999 256.936 176.852 260.111 175C265.244 172.006 263.658 178.287 263.222 181.444C262.904 183.754 264.072 192.112 266.444 185.944C270.459 175.507 269.902 160.401 267.556 149.667C265.166 138.734 262.608 144.359 262.056 152C261.325 162.102 261.501 171.999 257 181" stroke="black" stroke-linecap="round"/>
<path d="M263 160C261.174 160.406 261.848 161.696 261 160" stroke="black" stroke-linecap="round"/>
<path d="M261 159C261 169.186 263.527 185.203 270.778 192.889C276.696 199.162 281.644 180.051 283 177" stroke="black" stroke-linecap="round"/>
<path d="M267 161C261.418 168.908 278.182 193.636 285 195" stroke="black" stroke-linecap="round"/>
<path d="M272 175C278.191 184.68 285.517 194 298 194" stroke="black" stroke-linecap="round"/>
<path d="M274 176C275.15 177.434 296.626 206.374 299 204" stroke="black" stroke-linecap="round"/>
<path d="M281 182C288.45 186.851 301.731 193.359 308 185" stroke="black" stroke-linecap="round"/>
<path d="M287 182C291.88 191.063 306.804 197.136 316.278 192.889C331.643 186.001 326.299 174.182 322 162" stroke="black" stroke-linecap="round"/>
<path d="M315 189C320.704 177.116 321.426 161.07 321.889 148.111C322.304 136.49 323.181 123.1 319.444 111.889C316.467 102.957 319.202 130.802 320.611 140.111C322.528 152.776 325.191 165.337 327 178" stroke="black" stroke-linecap="round"/>
<path d="M319 128C317.381 125.241 317.14 125.108 316 121.778C315.858 121.362 313.26 111.207 313.167 111.222C311.027 111.579 317.436 155.849 317.778 159.944C318.206 165.088 318.096 170.376 319.222 175.444C319.366 176.09 319.607 176.711 319.833 177.333C319.903 177.526 319.834 176.919 319.778 176.722C315.976 163.415 315.228 149.002 314.111 135.278C313.581 128.771 313.351 125.12 313.111 118.833C313.054 117.334 313.032 115.833 313 114.333C312.989 113.815 313 115.37 313 115.889C313 131.272 312.921 146.657 314.222 162C314.655 167.108 315.403 172.177 315.889 177.278C316.272 181.298 315.801 177.488 315.778 177.222C314.85 166.548 313.967 156.489 312 146" stroke="black" stroke-linecap="round"/>
<path d="M308 99C305.059 115.909 307 134.396 307 151.5C307 155.519 307 159.537 307 163.556C307 166.333 307 158 307 155.222C307 137.991 306.677 120.727 307.056 103.5C307.085 102.147 307.102 100.792 307.222 99.4444C307.259 99.032 307.749 100.142 307.778 100.556C308.355 108.753 308.463 116.969 309.111 125.167C309.148 125.632 311.837 151.879 313.944 145.556C317.174 135.867 315 123.089 315 113.056C315 99.4572 315.004 123.618 315.056 126.222C315.073 127.096 316.858 144.714 318.389 139.611C320.599 132.244 319 122.379 319 114.889C319 108.333 319 101.778 319 95.2222C319 94.7037 319 94.1852 319 93.6667C319 92.5185 318.983 95.9631 319 97.1111C319.115 105.092 317.894 117.952 322.222 125.111C324.144 128.29 323.786 113.455 323.778 113.333C323.335 106.422 322.19 99.7004 320.444 93C319.81 90.5659 318.568 83.5584 316.444 81.3333C314.768 79.5767 316.017 86.1845 316.111 88.6111C316.416 96.4741 317.016 104.33 318.222 112.111C318.772 115.657 317.624 124.16 320.833 122.556C321.503 122.221 321.003 115.604 321 115.222C320.966 110.867 320.814 106.069 320 102" stroke="black" stroke-linecap="round"/>
<path d="M384 99C381.861 94.8148 379.353 93.7486 374.611 96.6111C360.574 105.084 352.774 126.781 359.222 142.111C368.865 165.037 400.469 163.83 420.056 158.167C439.602 152.516 448.66 140.045 444.056 119.889C439.713 100.882 425.89 86.0398 405.722 84.3333C388.47 82.8735 368.579 93.0216 365.111 111.278C360.604 135.008 396.519 159.031 416.722 145.5C437.625 131.501 417.522 96.5778 397.556 93.3333C381.077 90.6556 372.965 110.775 371.889 123.667C370.4 141.498 378.964 158.705 397.111 163.333C409.777 166.564 426.022 163.786 432.444 151.111C437.945 140.254 437.83 121.923 426.111 114.778C412.468 106.459 391.815 115.994 383.778 128C373.596 143.21 383.824 160.066 399.111 166C409.888 170.184 422.931 169.249 432.5 162.667C446.734 152.875 449.426 133.75 445.389 118.056C440.561 99.2895 426.236 88.3065 406.667 93.0556C387.337 97.7465 373.954 114.975 374.278 134.944C374.933 175.392 440.367 170.414 438.889 132.167C438.175 113.687 421.881 98.6594 403.944 96.8889C384.466 94.9661 374.939 110.555 376.889 128.333C378.266 140.888 384.66 152.128 397 156.667C408.847 161.024 422.634 156.878 426 143.778C430.188 127.48 423.992 105.096 410.222 94.7778C396.243 84.3033 377.244 92.1903 372.556 108.444C367.767 125.044 379.372 141.985 396.111 144.667C411.938 147.202 425.299 134.247 428.222 119.444C431.92 100.72 416.093 90.1512 399.444 88.6667C386.014 87.469 377.836 92.281 367 98" stroke="black" stroke-linecap="round"/>
<path d="M470 94C471.23 118.778 473.375 143.567 476.111 168.222C476.868 175.043 475.917 182.604 479.333 188.556C482.12 193.409 480 177.374 479.944 171.778C479.749 152.157 479.555 132.502 479 112.889C478.643 100.267 477.389 138.098 477.111 150.722C477.071 152.567 476.882 161.19 477.111 164.278C477.346 167.448 477.888 163.951 478 163.222C480.368 147.832 479.271 131.272 478.778 115.778C478.215 98.0984 475.685 116.466 475.167 122.167C474.276 131.959 475.17 140.483 477 150" stroke="black" stroke-linecap="round"/>
<path d="M477 94C474.898 96.7593 475.686 95.3033 475.444 101.667C474.988 113.669 475.242 126.057 477.5 137.889C480.344 152.791 479.796 127.767 479.778 127C479.693 123.375 479.352 110.914 479.222 107C479.179 105.703 479.537 104.316 479.056 103.111C477.371 98.8986 479.012 112.185 479.056 116.722C479.186 130.246 479.611 143.571 481 157" stroke="black" stroke-linecap="round"/>
<path d="M479 96C477.291 91.5555 480.642 83.9056 484.556 81.4444C498.482 72.6856 503.722 109.662 503.444 116.278C503.069 125.23 498.878 131.756 490 133.611C488.364 133.953 483.328 134 485 134" stroke="black" stroke-linecap="round"/>
<path d="M487 127C503.902 141.81 522.384 156.193 537.167 173.278C541.421 178.194 540.806 178.927 542 184" stroke="black" stroke-linecap="round"/>
<path d="M505 146C520.269 162.965 537.274 178.468 553 195" stroke="black" stroke-linecap="round"/>
<path d="M499 132C498.115 131.54 495.678 129.899 496.222 132.5C497.925 140.634 505.601 148.725 511 154.556C512.361 156.025 526.375 170.625 528 169" stroke="black" stroke-linecap="round"/>
<path d="M501 128C501.608 131.444 507.909 138.276 509.333 139.944C516.037 147.794 523.427 152.437 531 159" stroke="black" stroke-linecap="round"/>
<path d="M487 84C500.47 86.2449 509.202 102.391 513 113.833C515.37 120.974 516.433 128.002 515.889 135.444C515.44 141.583 514.15 139.85 511 143" stroke="black" stroke-linecap="round"/>
<path d="M488 86C502.515 90.8383 525.46 133.562 504 140" stroke="black" stroke-linecap="round"/>
<path d="M491 106C494.579 95.2644 506.917 92.1888 510.778 105C514.458 117.215 513.337 130.985 510 143" stroke="black" stroke-linecap="round"/>
<path d="M482 79C496.644 80.2203 511.828 96.5837 516.278 109.611C518.6 116.408 518.159 121.768 516.778 128.444C515.559 134.333 514.735 132.718 512 136" stroke="black" stroke-linecap="round"/>
<path d="M558 84C582.41 81.9516 610.988 88.7388 630.056 104.722C640.529 113.502 648.586 131.9 638.444 144C627.436 157.135 607.976 157.971 592.333 157.111C582.195 156.553 573.375 155.384 565 150" stroke="black" stroke-linecap="round"/>
<path d="M552 88C576.948 89.9111 602.709 90.5689 625.667 101.944C646.324 112.18 657.135 131.91 636.611 148.889C623.823 159.468 606.753 164.249 590.778 167.222C587.661 167.802 579.002 168.88 574.889 168.333C567.589 167.363 576.071 167.879 572 166" stroke="black" stroke-linecap="round"/>
<path d="M561 92C575.186 96.5953 576.587 95.8948 590.333 107.333C606.096 120.45 634.221 145.033 631.056 169C629.658 179.579 619.269 182.907 611.222 185.5C600.977 188.802 595.699 186.396 586 186" stroke="black" stroke-linecap="round"/>
<path d="M578 84C584.469 87.3961 586.082 88.111 593.778 93.3333C610.683 104.805 631.604 117.881 640.833 137.056C644.792 145.28 643.948 151.005 638.944 158C631.36 168.604 619.751 168.88 609 174" stroke="black" stroke-linecap="round"/>
<path d="M594 104C596.136 132.679 598.77 161.33 601 190" stroke="black" stroke-linecap="round"/>
<path d="M600 92C598.327 104.048 598.395 116.765 598.333 128.833C598.295 136.334 598.26 143.839 598.556 151.333C601.625 229.272 597.859 126.203 602 179" stroke="black" stroke-linecap="round"/>
<path d="M599 122C600.427 157.844 598.703 194.685 604 230" stroke="black" stroke-linecap="round"/>
<path d="M607 122C607.164 139.952 607.119 160.28 608.111 178.333C611.145 233.545 608.102 167.396 612 213" stroke="black" stroke-linecap="round"/>
<path d="M607 115C607.101 142.763 607.881 170.299 609 198" stroke="black" stroke-linecap="round"/>
<path d="M586 111C586.782 125.543 587.627 140.084 588.667 154.611C589.777 170.113 592.162 184.795 594 200" stroke="black" stroke-linecap="round"/>
<path d="M581 106C581 141.558 577.242 178.77 588 213" stroke="black" stroke-linecap="round"/>
</g>
<defs>
<filter id="filter0_d_1_366" x="0.499916" y="0.49987" width="651.615" height="238" filterUnits="userSpaceOnUse" color-interpolation-filters="sRGB">
<feFlood flood-opacity="0" result="BackgroundImageFix"/>
<feColorMatrix in="SourceAlpha" type="matrix" values="0 0 0 0 0 0 0 0 0 0 0 0 0 0 0 0 0 0 127 0" result="hardAlpha"/>
<feOffset dy="4"/>
<feGaussianBlur stdDeviation="2"/>
<feComposite in2="hardAlpha" operator="out"/>
<feColorMatrix type="matrix" values="0 0 0 0 0 0 0 0 0 0 0 0 0 0 0 0 0 0 0.25 0"/>
<feBlend mode="normal" in2="BackgroundImageFix" result="effect1_dropShadow_1_366"/>
<feBlend mode="normal" in="SourceGraphic" in2="effect1_dropShadow_1_366" result="shape"/>
</filter>
</defs>
</svg>
