<svg width="456" height="149" viewBox="0 0 456 149" fill="none" xmlns="http://www.w3.org/2000/svg">
<path d="M128.392 91.8301L120.088 49.808L119.688 49.8023L110.194 91.5717L85.8963 91.2268L70.7745 22.2052L93.7722 22.5317L101.118 61.6399L101.518 61.6456L109.871 22.7602L131.668 23.0697L139.414 62.1836L139.814 62.1892L147.767 23.2982L169.765 23.6105L152.69 92.175L128.392 91.8301ZM309.253 46.6929C309.193 50.8925 308.006 54.676 305.691 58.0435C303.376 61.411 300.041 63.8639 295.686 65.4022L310.575 94.4165L285.778 94.0645L273.935 68.7938L265.736 68.6774L265.38 93.7749L243.282 93.4612L244.259 24.6681L286.354 25.2657C291.287 25.3357 295.473 26.3619 298.912 28.3443C302.418 30.2609 305.015 32.8647 306.702 36.1556C308.456 39.3809 309.306 42.8933 309.253 46.6929ZM286.742 47.2734C286.768 45.4736 286.189 43.9652 285.006 42.7483C283.823 41.5314 282.365 40.9107 280.632 40.8861L266.134 40.6802L265.953 53.3789L280.452 53.5848C282.185 53.6094 283.66 53.0303 284.877 51.8474C286.095 50.5979 286.716 49.0732 286.742 47.2734ZM351.88 26.196C375.944 26.5376 387.813 38.1739 387.488 61.105C387.162 84.036 374.967 95.3307 350.903 94.989L321.106 94.566L322.083 25.7729L351.88 26.196ZM343.438 78.3814L350.737 78.485C360.003 78.6166 364.707 73.7162 364.848 63.7838L364.933 57.7844C365.074 47.8521 360.511 42.8202 351.246 42.6886L343.946 42.585L343.438 78.3814Z" fill="black"/>
<g style="mix-blend-mode:darken">
<path d="M17.2116 68.8458L73.9097 112.003L74.1384 111.854L57.6784 42.5267L59.6218 41.2628L76.7684 113.397L74.2536 115.032L15.2683 70.1097L17.2116 68.8458Z" fill="grey"/>
</g>
<g style="mix-blend-mode:darken">
<path d="M233.457 58.2058C233.794 65.3114 232.876 71.612 230.703 77.1077C228.529 82.6034 225.346 86.964 221.154 90.1893C216.96 93.3919 212.003 95.1291 206.282 95.4009C200.538 95.6738 195.427 94.4035 190.947 91.5902C186.468 88.7769 182.886 84.7378 180.201 79.4729C177.539 74.2069 176.04 68.0325 175.703 60.9496C175.366 53.844 176.284 47.5546 178.459 42.0816C180.632 36.5859 183.815 32.2254 188.008 29.0001C192.201 25.7748 197.157 24.0262 202.878 23.7544C208.599 23.4826 213.699 24.7534 218.178 27.5667C222.657 30.3573 226.238 34.3851 228.923 39.65C231.608 44.9149 233.119 51.1001 233.457 58.2058ZM231.277 58.3093C230.96 51.635 229.558 45.8314 227.071 40.8984C224.583 35.9427 221.263 32.1528 217.111 29.5287C212.981 26.8808 208.271 25.6825 202.982 25.9338C197.715 26.184 193.139 27.8121 189.255 30.818C185.392 33.8001 182.446 37.8764 180.416 43.0467C178.408 48.1932 177.564 54.1263 177.883 60.846C178.198 67.4749 179.588 73.2678 182.053 78.2245C184.517 83.1586 187.815 86.9609 191.947 89.6315C196.1 92.2783 200.844 93.475 206.178 93.2215C211.468 92.9702 216.055 91.3416 219.939 88.3357C223.823 85.3071 226.768 81.2195 228.776 76.073C230.783 70.9037 231.617 64.9825 231.277 58.3093Z" fill="grey"/>
</g>
</svg>
