<svg width="58" height="49" viewBox="0 0 58 49" fill="none" xmlns="http://www.w3.org/2000/svg">
<g filter="url(#filter0_i_3_20)">
<rect x="17" y="36.0208" width="17" height="17" rx="8.5" transform="rotate(-45 17 36.0208)" fill="#DE7133"/>
</g>
<path d="M4.5 20C4.5 9.23045 13.2304 0.5 24 0.5H34C44.7696 0.5 53.5 9.23045 53.5 20V35.5H4.5V20Z" fill="#D9D9D9" stroke="#D9D9D9"/>
<g filter="url(#filter1_d_3_20)">
<path d="M4 20C4 8.95431 12.9543 0 24 0H34C45.0457 0 54 8.95431 54 20V36H4V20Z" fill="#D9D9D9"/>
<path d="M4.5 20C4.5 9.23045 13.2304 0.5 24 0.5H34C44.7696 0.5 53.5 9.23045 53.5 20V35.5H4.5V20Z" stroke="#D9D9D9"/>
</g>
<defs>
<filter id="filter0_i_3_20" x="20.5208" y="27.5208" width="17" height="21" filterUnits="userSpaceOnUse" color-interpolation-filters="sRGB">
<feFlood flood-opacity="0" result="BackgroundImageFix"/>
<feBlend mode="normal" in="SourceGraphic" in2="BackgroundImageFix" result="shape"/>
<feColorMatrix in="SourceAlpha" type="matrix" values="0 0 0 0 0 0 0 0 0 0 0 0 0 0 0 0 0 0 127 0" result="hardAlpha"/>
<feOffset dy="4"/>
<feGaussianBlur stdDeviation="2"/>
<feComposite in2="hardAlpha" operator="arithmetic" k2="-1" k3="1"/>
<feColorMatrix type="matrix" values="0 0 0 0 0 0 0 0 0 0 0 0 0 0 0 0 0 0 0.25 0"/>
<feBlend mode="normal" in2="shape" result="effect1_innerShadow_3_20"/>
</filter>
<filter id="filter1_d_3_20" x="0" y="0" width="58" height="44" filterUnits="userSpaceOnUse" color-interpolation-filters="sRGB">
<feFlood flood-opacity="0" result="BackgroundImageFix"/>
<feColorMatrix in="SourceAlpha" type="matrix" values="0 0 0 0 0 0 0 0 0 0 0 0 0 0 0 0 0 0 127 0" result="hardAlpha"/>
<feOffset dy="4"/>
<feGaussianBlur stdDeviation="2"/>
<feComposite in2="hardAlpha" operator="out"/>
<feColorMatrix type="matrix" values="0 0 0 0 0 0 0 0 0 0 0 0 0 0 0 0 0 0 0.25 0"/>
<feBlend mode="normal" in2="BackgroundImageFix" result="effect1_dropShadow_3_20"/>
<feBlend mode="normal" in="SourceGraphic" in2="effect1_dropShadow_3_20" result="shape"/>
</filter>
</defs>
</svg>
